{"glyphs":{"0":{"ha":771,"x_min":0,"x_max":0,"o":"m 385 -15 b 725 456 613 -15 725 178 b 389 918 725 703 629 918 b 46 450 156 918 46 713 b 383 -15 47 194 150 -15 z m 385 144 b 256 453 304 144 254 244 b 385 758 256 657 306 758 b 513 453 469 758 513 653 b 386 144 513 247 468 144 z "},"1":{"ha":771,"x_min":0,"x_max":0,"o":"m 328 0 l 532 0 l 532 903 l 358 903 l 118 792 l 153 633 l 325 715 l 328 715 z "},"2":{"ha":771,"x_min":0,"x_max":0,"o":"m 700 0 l 700 174 l 358 174 l 358 176 l 442 246 b 682 635 574 363 682 483 b 365 918 682 799 571 918 b 71 825 244 918 138 876 l 131 675 b 324 749 178 710 246 749 b 471 617 428 749 471 690 b 175 232 469 511 374 410 l 60 128 l 60 0 z "},"3":{"ha":771,"x_min":0,"x_max":0,"o":"m 53 47 b 321 -15 106 15 204 -15 b 690 260 550 -15 690 101 b 494 481 690 379 603 461 l 494 483 b 660 693 606 521 660 597 b 361 918 660 817 553 918 b 82 850 243 918 136 885 l 125 697 b 313 751 161 719 239 751 b 446 657 403 751 446 711 b 286 553 446 581 357 553 l 204 553 l 204 401 l 290 401 b 471 271 382 401 471 361 b 306 151 471 204 415 151 b 96 207 219 151 133 186 z "},"4":{"ha":771,"x_min":0,"x_max":0,"o":"m 632 0 l 632 215 l 739 215 l 739 374 l 632 374 l 632 903 l 372 903 l 32 353 l 32 215 l 432 215 l 432 0 z m 228 374 l 229 376 l 349 574 b 433 742 379 631 404 683 l 438 742 b 432 574 435 683 432 628 l 432 374 z "},"5":{"ha":771,"x_min":0,"x_max":0,"o":"m 661 903 l 164 903 l 106 431 b 226 439 142 436 176 439 b 481 288 407 439 481 382 b 300 150 481 192 388 150 b 97 194 218 150 136 175 l 58 36 b 310 -15 108 10 200 -15 b 697 301 553 -15 697 133 b 588 529 697 408 656 483 b 350 594 525 575 436 594 b 292 592 328 594 311 593 l 311 729 l 661 729 z "},"6":{"ha":771,"x_min":0,"x_max":0,"o":"m 635 915 b 550 914 615 917 589 918 b 203 782 410 907 292 864 b 42 379 104 690 42 549 b 401 -15 42 164 160 -15 b 733 311 596 -15 733 132 b 454 606 733 499 606 606 b 263 535 371 606 307 579 l 258 535 b 553 750 282 639 365 736 b 635 753 586 753 611 754 z m 397 140 b 251 322 301 140 256 226 b 261 376 251 347 254 364 b 385 456 281 421 328 456 b 519 300 475 456 519 383 b 399 140 519 208 472 140 z "},"7":{"ha":771,"x_min":0,"x_max":0,"o":"m 68 903 l 68 729 l 482 729 l 482 726 l 110 0 l 333 0 l 706 771 l 706 903 z "},"8":{"ha":771,"x_min":0,"x_max":0,"o":"m 392 918 b 75 664 213 918 75 817 b 206 465 75 585 118 511 l 206 463 b 44 236 107 419 44 344 b 379 -15 44 114 150 -15 b 726 260 589 -15 726 96 b 560 483 726 375 649 450 l 560 488 b 692 686 650 532 692 608 b 393 918 692 796 604 918 z m 388 131 b 261 257 310 131 260 192 b 371 392 261 322 301 372 b 513 243 453 369 513 322 b 389 131 513 179 463 131 z m 388 775 b 496 663 464 775 496 719 b 404 549 496 607 453 563 b 278 671 332 571 278 610 b 386 775 278 726 314 775 z "},"9":{"ha":771,"x_min":0,"x_max":0,"o":"m 124 -12 b 219 -12 149 -14 185 -15 b 567 114 361 -7 481 35 b 724 529 664 204 724 340 b 382 918 724 740 614 918 b 42 593 183 918 42 769 b 322 311 42 417 169 311 b 506 376 406 311 464 335 l 508 375 b 394 208 493 307 454 247 b 215 153 346 175 281 156 b 124 153 174 150 151 149 z m 376 764 b 508 574 472 764 510 669 b 499 519 508 547 506 533 b 379 461 478 488 439 461 b 251 606 294 461 251 528 b 375 764 251 700 304 764 z "}," ":{"ha":281,"x_min":0,"x_max":0,"o":""}," ":{"ha":281,"x_min":0,"x_max":0,"o":""},"!":{"ha":372,"x_min":0,"x_max":0,"o":"m 265 307 l 296 936 l 76 936 l 107 307 z m 186 -15 b 310 111 261 -15 310 39 b 186 238 308 186 260 238 b 61 111 113 238 61 186 b 185 -15 61 39 111 -15 z "},"\"":{"ha":551,"x_min":0,"x_max":0,"o":"m 50 961 l 81 585 l 206 585 l 236 961 z m 317 961 l 347 585 l 472 585 l 503 961 z "},"#":{"ha":764,"x_min":0,"x_max":0,"o":"m 310 376 l 332 533 l 458 533 l 438 376 z m 254 0 l 289 249 l 415 249 l 379 0 l 504 0 l 539 249 l 675 249 l 675 376 l 561 376 l 582 533 l 714 533 l 714 661 l 603 661 l 638 903 l 514 903 l 479 661 l 351 661 l 386 903 l 264 903 l 228 661 l 92 661 l 92 533 l 208 533 l 186 376 l 51 376 l 51 249 l 165 249 l 129 0 z "},"$":{"ha":771,"x_min":0,"x_max":0,"o":"m 449 -121 l 449 22 b 696 278 610 50 696 154 b 464 539 696 404 631 481 b 297 657 346 582 297 613 b 417 736 297 696 326 736 b 617 688 517 736 582 704 l 658 844 b 456 890 611 867 549 888 l 456 1013 l 319 1013 l 319 881 b 85 633 171 853 85 757 b 335 379 85 499 186 429 b 483 258 438 344 483 311 b 349 172 483 204 428 172 b 118 233 258 172 176 201 l 76 71 b 313 13 129 42 219 15 l 313 -121 z "},"%":{"ha":1222,"x_min":0,"x_max":0,"o":"m 290 918 b 38 635 136 918 38 796 b 283 363 38 465 146 363 b 533 649 414 363 533 461 b 292 918 533 804 446 918 z m 288 803 b 378 640 353 803 378 732 b 289 476 378 538 349 476 b 196 639 228 476 194 544 b 286 803 196 731 224 803 z m 940 543 b 689 261 788 543 689 422 b 933 -12 689 90 797 -12 b 1183 276 1064 -12 1183 88 b 942 543 1183 431 1096 543 z m 939 429 b 1028 267 1003 429 1028 358 b 939 103 1028 164 999 103 b 847 265 879 103 846 171 b 938 429 847 357 875 429 z m 407 -15 l 925 917 l 813 917 l 293 -15 z "},"&":{"ha":942,"x_min":0,"x_max":0,"o":"m 933 0 b 768 183 875 63 821 124 b 924 539 851 276 899 397 l 735 539 b 656 311 722 456 693 369 b 500 486 610 358 553 426 l 500 492 b 685 732 629 557 685 638 b 432 951 685 867 576 951 b 150 704 243 951 150 824 b 221 524 150 638 181 568 l 221 519 b 43 250 114 463 43 374 b 369 -15 43 118 143 -15 b 626 67 481 -15 565 19 b 688 0 649 42 668 21 z m 399 138 b 242 285 301 138 242 204 b 317 414 242 346 278 386 b 528 185 393 328 469 242 b 400 138 500 158 454 138 z m 425 819 b 507 726 481 819 507 771 b 404 589 507 672 472 636 b 340 724 361 635 340 676 b 424 819 340 774 369 819 z "},"’":{"ha":361,"x_min":0,"x_max":0,"o":"m 133 949 b 36 574 114 826 78 693 l 164 586 b 331 961 228 690 288 826 z "},"(":{"ha":436,"x_min":0,"x_max":0,"o":"m 242 960 b 83 397 168 851 85 668 b 242 -162 83 129 168 -54 l 389 -162 b 249 397 311 -32 249 153 b 389 960 249 646 311 832 z "},")":{"ha":436,"x_min":0,"x_max":0,"o":"m 196 -162 b 354 399 269 -53 353 129 b 196 960 354 669 269 853 l 49 960 b 189 400 126 831 189 646 b 49 -162 189 154 126 -33 z "},"*":{"ha":631,"x_min":0,"x_max":0,"o":"m 396 951 l 315 738 l 313 738 l 236 951 l 113 881 l 258 704 l 258 701 l 42 746 l 42 606 l 260 644 l 261 642 l 113 468 l 232 397 l 311 610 l 314 611 l 394 397 l 517 468 l 367 640 l 367 643 l 590 606 l 590 746 l 368 701 l 368 704 l 517 882 z "},"+":{"ha":828,"x_min":0,"x_max":0,"o":"m 346 739 l 346 436 l 56 436 l 56 307 l 346 307 l 346 0 l 482 0 l 482 307 l 772 307 l 772 436 l 482 436 l 482 739 z "},",":{"ha":361,"x_min":0,"x_max":0,"o":"m 143 -153 b 318 243 210 -44 272 101 l 103 229 b 1 -165 83 103 46 -42 z "},"-":{"ha":447,"x_min":0,"x_max":0,"o":"m 42 435 l 42 294 l 406 294 l 406 435 z "},"­":{"ha":447,"x_min":0,"x_max":0,"o":"m 42 435 l 42 294 l 406 294 l 406 435 z "},".":{"ha":361,"x_min":0,"x_max":0,"o":"m 193 -15 b 318 113 268 -15 318 39 b 194 242 317 190 267 242 b 69 113 121 242 69 189 b 192 -15 69 39 121 -15 z "},"/":{"ha":460,"x_min":0,"x_max":0,"o":"m 163 -56 l 460 951 l 319 951 l 22 -56 z "},":":{"ha":361,"x_min":0,"x_max":0,"o":"m 194 433 b 318 560 269 433 318 488 b 194 688 317 636 268 688 b 71 560 122 688 71 635 b 193 433 71 488 121 433 z m 193 -15 b 317 111 268 -15 317 39 b 193 239 315 188 267 239 b 69 111 121 239 69 186 b 192 -15 69 39 119 -15 z "},";":{"ha":361,"x_min":0,"x_max":0,"o":"m 143 -153 b 317 243 208 -44 272 101 l 104 229 b 3 -165 85 103 47 -43 z m 201 433 b 325 560 276 433 325 488 b 201 688 324 636 275 688 b 78 560 129 688 78 635 b 200 433 78 488 128 433 z "},"<":{"ha":828,"x_min":0,"x_max":0,"o":"m 81 308 l 749 0 l 749 147 l 243 367 l 243 369 l 749 590 l 749 738 l 81 428 z "},"=":{"ha":828,"x_min":0,"x_max":0,"o":"m 772 451 l 772 581 l 56 581 l 56 451 z m 772 164 l 772 293 l 56 293 l 56 164 z "},">":{"ha":828,"x_min":0,"x_max":0,"o":"m 747 432 l 79 738 l 79 590 l 596 369 l 596 367 l 79 146 l 79 0 l 747 304 z "},"?":{"ha":618,"x_min":0,"x_max":0,"o":"m 376 304 l 376 329 b 447 501 375 392 397 446 b 567 736 500 561 567 629 b 300 951 567 850 482 951 b 68 894 200 951 118 924 l 114 744 b 253 785 151 769 206 785 b 353 703 321 783 353 750 b 272 557 353 656 317 610 b 190 340 210 483 188 411 l 193 304 z m 281 -15 b 404 111 356 -15 404 39 b 279 238 403 186 354 238 b 156 111 207 238 156 186 b 279 -15 156 39 206 -15 z "},"@":{"ha":1069,"x_min":0,"x_max":0,"o":"m 614 476 b 496 331 603 396 549 331 b 428 417 451 331 428 364 b 592 614 428 524 500 614 b 635 608 608 614 624 611 z m 733 114 b 531 71 678 86 601 71 b 176 435 324 71 176 201 b 575 867 176 701 361 867 b 907 546 790 867 907 728 b 772 311 907 385 832 308 b 736 432 733 313 724 350 l 778 690 b 614 724 744 708 675 724 b 288 400 414 724 288 571 b 443 218 288 286 354 218 b 624 325 518 218 579 256 l 626 325 b 746 218 633 253 681 218 b 1010 550 896 218 1010 346 b 589 951 1010 783 835 951 b 69 422 276 951 69 706 b 503 -15 69 150 272 -15 b 757 35 601 -15 674 -3 z "},"A":{"ha":911,"x_min":0,"x_max":0,"o":"m 578 240 l 650 0 l 878 0 l 586 936 l 310 936 l 24 0 l 243 0 l 308 240 z m 339 399 l 396 597 b 438 778 410 651 425 722 l 442 778 b 488 597 456 724 472 653 l 546 399 z "},"B":{"ha":839,"x_min":0,"x_max":0,"o":"m 92 4 b 321 -10 139 -3 217 -10 b 689 75 507 -10 621 21 b 786 274 747 121 786 188 b 600 504 786 394 707 476 l 600 507 b 753 706 704 547 753 624 b 642 890 753 792 707 856 b 365 943 574 931 494 943 b 92 922 258 943 147 933 z m 301 782 b 392 789 318 786 344 789 b 542 681 488 789 542 751 b 371 565 542 611 483 565 l 301 565 z m 301 414 l 374 414 b 564 282 479 414 564 376 b 383 146 564 183 479 146 b 301 150 347 146 322 146 z "},"C":{"ha":826,"x_min":0,"x_max":0,"o":"m 747 192 b 569 161 704 174 635 161 b 271 467 382 161 271 279 b 568 778 271 676 401 778 b 746 743 644 778 704 761 l 790 910 b 560 951 753 929 669 951 b 49 456 276 951 49 775 b 539 -15 49 188 215 -15 b 778 25 651 -15 740 7 z "},"D":{"ha":967,"x_min":0,"x_max":0,"o":"m 92 4 b 332 -10 143 -3 222 -10 b 765 111 515 -10 667 29 b 919 490 854 188 919 311 b 761 846 919 657 858 774 b 376 943 672 914 556 943 b 92 922 271 943 169 936 z m 303 772 b 399 781 321 776 353 781 b 696 483 582 781 696 685 b 376 156 696 260 569 154 b 303 160 351 156 321 156 z "},"E":{"ha":742,"x_min":0,"x_max":0,"o":"m 649 568 l 304 568 l 304 763 l 669 763 l 669 936 l 93 936 l 93 0 l 689 0 l 689 174 l 304 174 l 304 396 l 649 396 z "},"F":{"ha":732,"x_min":0,"x_max":0,"o":"m 93 0 l 304 0 l 304 376 l 640 376 l 640 549 l 304 549 l 304 763 l 664 763 l 664 936 l 93 936 z "},"G":{"ha":947,"x_min":0,"x_max":0,"o":"m 874 536 l 525 536 l 525 371 l 669 371 l 669 174 b 567 161 653 167 614 161 b 271 468 393 161 271 274 b 582 771 271 671 406 771 b 799 731 685 771 747 754 l 843 901 b 583 946 797 922 704 946 b 49 457 276 946 50 768 b 181 115 49 319 96 197 b 561 -10 267 33 390 -10 b 874 43 685 -10 808 21 z "},"H":{"ha":957,"x_min":0,"x_max":0,"o":"m 93 936 l 93 0 l 304 0 l 304 390 l 653 390 l 653 0 l 864 0 l 864 936 l 653 936 l 653 575 l 304 575 l 304 936 z "},"I":{"ha":396,"x_min":0,"x_max":0,"o":"m 93 936 l 93 0 l 304 0 l 304 936 z "},"J":{"ha":571,"x_min":0,"x_max":0,"o":"m 275 346 b 131 161 275 201 219 161 b 22 178 89 161 51 168 l -1 7 b 154 -15 40 -7 104 -15 b 486 344 358 -15 486 78 l 486 936 l 275 936 z "},"K":{"ha":853,"x_min":0,"x_max":0,"o":"m 92 0 l 301 0 l 301 306 l 381 404 l 611 0 l 857 0 l 532 538 l 842 936 l 581 936 l 369 625 b 304 522 347 592 325 558 l 301 522 l 301 936 l 92 936 z "},"L":{"ha":710,"x_min":0,"x_max":0,"o":"m 93 0 l 676 0 l 676 178 l 304 178 l 304 936 l 93 936 z "},"M":{"ha":1175,"x_min":0,"x_max":0,"o":"m 899 0 l 1104 0 l 1054 936 l 776 936 l 678 625 b 589 289 646 519 614 397 l 583 289 b 504 622 563 399 535 515 l 413 936 l 131 936 l 71 0 l 267 0 l 285 356 b 300 743 290 472 296 617 l 303 743 b 388 376 326 619 357 488 l 488 15 l 653 15 l 767 381 b 872 743 803 490 842 624 l 875 743 b 883 358 875 606 879 471 z "},"N":{"ha":958,"x_min":0,"x_max":0,"o":"m 286 0 l 286 282 b 276 692 286 435 283 567 l 282 692 b 444 361 326 582 389 463 l 644 0 l 867 0 l 867 936 l 672 936 l 672 664 b 689 272 672 522 676 396 l 686 272 b 533 593 643 378 589 494 l 339 936 l 92 936 l 92 0 z "},"O":{"ha":996,"x_min":0,"x_max":0,"o":"m 490 -15 b 949 478 764 -15 949 169 b 504 951 949 736 792 951 b 49 461 229 951 49 742 b 489 -15 49 194 213 -15 z m 497 153 b 271 467 356 153 271 290 b 499 783 271 642 353 783 b 724 471 644 783 724 639 b 499 153 724 288 642 153 z "},"P":{"ha":807,"x_min":0,"x_max":0,"o":"m 92 0 l 301 0 l 301 336 b 374 331 321 332 346 331 b 679 429 499 331 607 363 b 764 651 735 481 764 558 b 665 867 764 743 725 821 b 378 943 603 918 508 943 b 92 924 249 943 157 935 z m 301 775 b 389 782 317 779 346 782 b 554 644 496 782 554 731 b 372 493 554 550 485 493 b 301 499 342 493 319 494 z "},"Q":{"ha":996,"x_min":0,"x_max":0,"o":"m 953 3 b 728 56 879 18 799 35 l 728 61 b 949 479 850 117 949 267 b 507 951 949 735 792 951 b 49 460 226 951 49 742 b 458 -15 49 154 246 -1 b 522 -29 479 -17 501 -21 b 893 -161 649 -81 760 -122 z m 499 153 b 272 467 357 153 272 288 b 500 783 272 643 356 783 b 725 471 644 783 725 642 b 500 153 725 288 643 153 z "},"R":{"ha":824,"x_min":0,"x_max":0,"o":"m 92 0 l 301 0 l 301 368 l 364 368 b 518 218 451 367 492 336 b 582 0 544 103 568 26 l 799 0 b 724 265 781 36 753 158 b 599 439 700 351 664 413 l 599 443 b 764 672 679 472 764 554 b 676 868 764 758 733 824 b 374 943 610 922 513 943 b 92 922 260 943 160 935 z m 301 778 b 397 785 317 782 346 785 b 553 656 494 785 553 740 b 385 521 553 574 490 521 l 301 521 z "},"S":{"ha":750,"x_min":0,"x_max":0,"o":"m 56 43 b 321 -15 108 14 214 -15 b 697 275 578 -15 697 118 b 456 556 697 408 621 494 b 282 689 333 603 282 629 b 418 779 282 736 326 779 b 613 735 508 779 576 753 l 660 904 b 421 951 604 931 528 951 b 67 671 201 951 67 831 b 325 392 67 533 169 447 b 482 261 438 353 482 318 b 333 158 482 199 431 158 b 99 217 243 158 154 188 z "},"T":{"ha":761,"x_min":0,"x_max":0,"o":"m 274 0 l 485 0 l 485 758 l 740 758 l 740 936 l 21 936 l 21 758 l 274 758 z "},"U":{"ha":947,"x_min":0,"x_max":0,"o":"m 92 936 l 92 414 b 465 -15 92 117 229 -15 b 856 411 710 -15 856 122 l 856 936 l 644 936 l 644 399 b 472 154 644 232 583 154 b 303 399 365 154 303 236 l 303 936 z "},"V":{"ha":883,"x_min":0,"x_max":0,"o":"m 560 0 l 875 936 l 650 936 l 531 536 b 446 206 499 429 469 318 l 442 206 b 358 540 419 322 390 428 l 244 936 l 13 936 l 313 0 z "},"W":{"ha":1233,"x_min":0,"x_max":0,"o":"m 475 0 l 564 403 b 618 692 586 497 601 586 l 621 692 b 665 403 632 585 647 497 l 744 0 l 974 0 l 1215 936 l 1000 936 l 924 554 b 869 228 904 442 883 332 l 867 228 b 817 542 853 332 838 432 l 742 936 l 517 936 l 438 554 b 376 222 414 438 392 325 l 374 222 b 318 551 358 318 339 439 l 247 936 l 21 936 l 243 0 z "},"X":{"ha":851,"x_min":0,"x_max":0,"o":"m 829 0 l 551 479 l 815 936 l 574 936 l 494 765 b 431 610 471 711 453 669 l 428 610 b 357 765 406 663 385 708 l 275 936 l 32 936 l 293 474 l 22 0 l 264 0 l 340 169 b 414 338 371 235 394 283 l 417 338 b 500 169 443 283 465 235 l 585 0 z "},"Y":{"ha":838,"x_min":0,"x_max":0,"o":"m 519 0 l 519 390 l 828 936 l 590 936 l 496 711 b 425 532 468 644 446 590 l 422 532 b 350 711 400 593 379 643 l 256 936 l 13 936 l 308 383 l 308 0 z "},"Z":{"ha":801,"x_min":0,"x_max":0,"o":"m 33 0 l 760 0 l 760 175 l 317 175 l 317 181 l 753 814 l 753 936 l 74 936 l 74 761 l 479 761 l 479 757 l 33 114 z "},"[":{"ha":436,"x_min":0,"x_max":0,"o":"m 378 -156 l 378 -39 l 246 -39 l 246 835 l 378 835 l 378 951 l 94 951 l 94 -156 z "},"\\":{"ha":475,"x_min":0,"x_max":0,"o":"m 453 -56 l 157 951 l 17 951 l 313 -56 z "},"]":{"ha":436,"x_min":0,"x_max":0,"o":"m 58 951 l 58 835 l 190 835 l 190 -39 l 58 -39 l 58 -156 l 342 -156 l 342 951 z "},"^":{"ha":828,"x_min":0,"x_max":0,"o":"m 769 246 l 479 903 l 350 903 l 60 246 l 208 246 l 411 740 l 415 740 l 618 246 z "},"_":{"ha":694,"x_min":0,"x_max":0,"o":"m 0 -104 l 0 -174 l 694 -174 l 694 -104 z "},"‘":{"ha":361,"x_min":0,"x_max":0,"o":"m 235 586 b 332 961 254 708 290 843 l 204 950 b 38 574 140 844 81 710 z "},"a":{"ha":733,"x_min":0,"x_max":0,"o":"m 650 401 b 353 694 650 561 579 694 b 89 633 229 694 136 660 l 128 499 b 315 549 172 525 246 549 b 439 461 419 549 439 497 l 439 453 b 40 193 199 453 40 369 b 260 -15 40 85 122 -15 b 454 68 340 -15 410 14 l 458 68 l 471 0 l 661 0 b 650 164 653 38 650 100 z m 446 247 b 442 211 446 235 444 222 b 332 133 428 168 383 133 b 249 214 285 133 249 160 b 446 321 249 294 335 321 z "},"b":{"ha":831,"x_min":0,"x_max":0,"o":"m 85 203 b 79 0 85 126 82 44 l 258 0 l 267 94 l 269 94 b 474 -15 317 14 394 -15 b 783 351 629 -15 783 107 b 504 694 785 560 667 694 b 299 599 410 694 339 657 l 296 599 l 296 986 l 85 986 z m 296 389 b 300 428 296 403 297 415 b 424 532 314 489 367 532 b 569 343 522 532 569 449 b 424 151 569 221 514 151 b 300 251 363 151 314 196 b 296 289 297 263 296 275 z "},"c":{"ha":626,"x_min":0,"x_max":0,"o":"m 569 172 b 449 150 538 158 499 150 b 263 342 346 150 263 217 b 444 532 261 453 333 532 b 563 511 500 532 538 522 l 596 668 b 435 694 551 685 490 694 b 46 333 182 694 46 532 b 406 -15 46 119 186 -15 b 594 17 486 -15 557 -1 z "},"d":{"ha":828,"x_min":0,"x_max":0,"o":"m 532 986 l 532 618 l 529 618 b 350 694 499 664 435 694 b 46 333 188 694 44 561 b 336 -15 46 122 175 -15 b 549 99 424 -15 507 24 l 553 99 l 561 0 l 749 0 b 743 203 746 46 743 125 l 743 986 z m 532 301 b 528 254 532 285 531 268 b 404 153 515 194 465 153 b 260 339 317 153 260 225 b 406 532 260 446 308 532 b 529 429 471 532 517 486 b 532 390 532 417 532 403 z "},"e":{"ha":733,"x_min":0,"x_max":0,"o":"m 685 272 b 692 357 688 289 692 321 b 389 696 692 525 608 696 b 46 333 154 696 46 506 b 408 -14 46 119 178 -14 b 654 29 500 -14 585 0 l 626 172 b 439 143 569 153 511 143 b 247 274 340 143 254 185 z m 246 418 b 378 556 251 474 288 556 b 496 418 474 556 496 468 z "},"f":{"ha":474,"x_min":0,"x_max":0,"o":"m 321 0 l 321 524 l 456 524 l 456 679 l 319 679 l 319 714 b 418 835 319 781 349 835 b 486 825 446 835 468 831 l 494 988 b 383 1001 465 994 429 1001 b 194 933 321 1001 249 983 b 110 706 135 878 110 788 l 110 679 l 19 679 l 19 524 l 110 524 l 110 0 z "},"g":{"ha":813,"x_min":0,"x_max":0,"o":"m 728 476 b 733 679 728 578 731 635 l 550 679 l 543 599 l 540 599 b 354 694 506 654 447 694 b 46 336 186 694 46 556 b 333 6 46 142 165 6 b 517 93 411 6 476 38 l 519 93 l 519 50 b 343 -129 519 -76 443 -129 b 146 -78 263 -129 189 -103 l 104 -239 b 349 -290 165 -272 258 -290 b 624 -207 449 -290 550 -271 b 728 99 701 -139 728 -32 z m 517 303 b 510 246 517 285 515 263 b 397 161 496 197 453 161 b 260 342 310 161 260 240 b 399 535 260 465 321 535 b 513 442 457 535 497 497 b 517 403 515 429 517 415 z "},"h":{"ha":814,"x_min":0,"x_max":0,"o":"m 85 0 l 296 0 l 296 403 b 303 449 296 418 297 436 b 408 524 318 488 353 524 b 518 374 488 524 518 463 l 518 0 l 729 0 l 729 396 b 492 694 729 601 626 694 b 382 668 453 694 414 685 b 299 597 349 651 321 628 l 296 597 l 296 986 l 85 986 z "},"i":{"ha":381,"x_min":0,"x_max":0,"o":"m 296 0 l 296 679 l 85 679 l 85 0 z m 190 768 b 310 881 264 768 310 818 b 192 993 308 944 264 993 b 72 881 119 993 72 944 b 189 768 72 818 118 768 z "},"j":{"ha":404,"x_min":0,"x_max":0,"o":"m -33 -297 b 228 -214 67 -297 165 -271 b 324 82 292 -156 324 -65 l 324 679 l 113 679 l 113 133 b 71 -87 113 -1 101 -56 b -54 -132 44 -115 0 -128 z m 217 768 b 336 881 290 768 336 818 b 218 993 335 944 290 993 b 99 881 146 993 99 944 b 215 768 99 818 144 768 z "},"k":{"ha":753,"x_min":0,"x_max":0,"o":"m 296 986 l 85 986 l 85 0 l 296 0 l 296 211 l 349 279 l 514 0 l 774 0 l 496 404 l 739 679 l 485 679 l 347 474 b 299 392 331 449 314 421 l 296 392 z "},"l":{"ha":381,"x_min":0,"x_max":0,"o":"m 85 0 l 296 0 l 296 986 l 85 986 z "},"m":{"ha":1194,"x_min":0,"x_max":0,"o":"m 85 0 l 290 0 l 290 394 b 299 449 290 413 292 432 b 397 524 311 482 343 524 b 496 381 465 524 496 465 l 496 0 l 701 0 l 701 397 b 708 450 701 414 704 435 b 807 524 724 490 757 524 b 907 368 875 524 907 467 l 907 0 l 1113 0 l 1113 400 b 883 694 1113 603 1014 694 b 754 661 833 694 792 682 b 665 578 721 642 692 614 l 663 578 b 476 694 633 649 565 694 b 271 586 361 694 300 631 l 267 586 l 258 679 l 79 679 b 85 463 82 618 85 547 z "},"n":{"ha":814,"x_min":0,"x_max":0,"o":"m 85 0 l 296 0 l 296 392 b 303 444 296 411 297 431 b 411 524 318 483 353 524 b 518 376 488 524 518 464 l 518 0 l 729 0 l 729 401 b 486 694 729 601 625 694 b 276 585 372 694 304 629 l 272 585 l 263 679 l 79 679 b 85 463 82 618 85 547 z "},"o":{"ha":801,"x_min":0,"x_max":0,"o":"m 399 -15 b 756 346 579 -15 756 99 b 410 694 756 551 617 694 b 46 335 190 694 46 554 b 397 -15 46 115 199 -15 z m 400 136 b 263 339 311 136 263 224 b 401 543 263 440 301 543 b 536 340 497 543 536 440 b 401 136 536 218 485 136 z "},"p":{"ha":831,"x_min":0,"x_max":0,"o":"m 85 -275 l 296 -275 l 296 63 l 299 63 b 475 -15 329 18 393 -15 b 783 349 626 -15 783 101 b 501 694 783 565 650 694 b 275 585 403 694 325 656 l 272 585 l 263 679 l 79 679 b 85 451 82 615 85 540 z m 296 385 b 300 422 296 397 297 411 b 426 529 314 485 367 529 b 569 339 521 529 569 447 b 424 147 569 224 515 147 b 300 247 363 147 314 190 b 296 292 297 261 296 275 z "},"q":{"ha":826,"x_min":0,"x_max":0,"o":"m 532 -275 l 743 -275 l 743 475 b 747 679 743 546 746 614 l 544 679 l 539 600 l 536 600 b 346 694 497 663 433 694 b 46 331 200 694 46 574 b 326 -15 46 115 179 -15 b 529 86 418 -15 486 21 l 532 86 z m 532 293 b 526 247 532 279 531 261 b 404 151 513 192 464 151 b 260 339 315 151 260 225 b 406 529 260 449 310 529 b 528 428 471 529 517 483 b 532 394 531 418 532 406 z "},"r":{"ha":528,"x_min":0,"x_max":0,"o":"m 85 0 l 296 0 l 296 343 b 300 390 296 361 297 376 b 444 497 314 457 367 497 b 503 492 468 497 485 494 l 503 690 b 458 694 488 693 478 694 b 275 553 392 694 310 653 l 269 553 l 261 679 l 81 679 b 86 456 85 621 86 556 z "},"s":{"ha":603,"x_min":0,"x_max":0,"o":"m 46 33 b 265 -15 97 6 176 -15 b 558 206 460 -15 558 78 b 375 414 557 304 504 371 b 265 493 292 443 265 460 b 346 547 265 526 294 547 b 493 510 403 547 463 525 l 529 654 b 339 694 488 675 418 694 b 63 471 171 694 63 599 b 257 268 61 392 115 314 b 356 189 335 242 356 225 b 265 133 356 154 329 133 b 83 183 203 133 122 160 z "},"t":{"ha":510,"x_min":0,"x_max":0,"o":"m 114 807 l 114 679 l 24 679 l 24 524 l 114 524 l 114 244 b 172 43 114 149 133 83 b 332 -15 207 8 264 -15 b 468 3 390 -15 442 -7 l 467 163 b 404 157 447 158 433 157 b 321 276 342 157 321 194 l 321 524 l 472 524 l 472 679 l 321 679 l 321 864 z "},"u":{"ha":810,"x_min":0,"x_max":0,"o":"m 725 679 l 514 679 l 514 275 b 506 229 514 257 511 242 b 400 156 493 196 458 156 b 293 314 325 156 293 215 l 293 679 l 82 679 l 82 281 b 321 -15 82 71 182 -15 b 533 96 443 -15 507 54 l 538 96 l 547 0 l 731 0 b 725 218 728 57 725 129 z "},"v":{"ha":736,"x_min":0,"x_max":0,"o":"m 13 679 l 260 0 l 471 0 l 724 679 l 501 679 l 414 364 b 376 199 399 306 388 254 l 372 199 b 333 364 361 253 350 307 l 242 679 z "},"w":{"ha":1054,"x_min":0,"x_max":0,"o":"m 15 679 l 214 0 l 413 0 l 481 239 b 524 450 497 301 511 365 l 526 450 b 571 238 540 365 553 304 l 635 0 l 832 0 l 1040 679 l 833 679 l 776 410 b 736 178 760 332 746 254 l 733 178 b 683 408 721 256 703 331 l 615 679 l 449 679 l 376 399 b 328 178 361 332 340 254 l 324 178 b 286 400 313 256 299 331 l 231 679 z "},"x":{"ha":721,"x_min":0,"x_max":0,"o":"m 10 679 l 235 346 l 4 0 l 236 0 l 300 122 b 351 225 317 156 335 189 l 356 225 b 408 122 371 190 389 156 l 476 0 l 715 0 l 489 356 l 713 679 l 483 679 l 424 569 b 371 464 406 535 389 501 l 368 464 b 313 565 350 497 332 531 l 246 679 z "},"y":{"ha":726,"x_min":0,"x_max":0,"o":"m 8 679 l 258 58 b 267 24 265 42 267 31 b 256 -7 267 14 263 4 b 168 -92 236 -40 200 -75 b 76 -128 136 -110 103 -122 l 121 -306 b 325 -212 175 -300 253 -276 b 564 232 401 -144 467 -37 l 722 679 l 496 679 l 413 346 b 382 219 403 307 392 256 l 378 219 b 344 346 369 256 356 306 l 243 679 z "},"z":{"ha":651,"x_min":0,"x_max":0,"o":"m 31 0 l 621 0 l 621 168 l 294 168 l 294 171 b 406 294 333 208 368 251 l 610 551 l 610 679 l 54 679 l 54 511 l 353 511 l 353 508 b 244 389 314 468 283 433 l 31 122 z "},"{":{"ha":436,"x_min":0,"x_max":0,"o":"m 42 346 b 147 251 138 342 147 289 b 140 143 147 217 143 181 b 132 33 136 106 132 68 b 342 -156 132 -106 218 -156 l 392 -156 l 392 -39 l 367 -39 b 282 61 303 -37 282 0 b 289 139 282 85 285 111 b 296 236 292 168 296 200 b 178 397 297 342 254 382 l 178 400 b 296 561 254 417 297 457 b 289 657 296 597 292 628 b 282 735 285 685 282 711 b 367 833 282 796 304 832 l 392 833 l 392 951 l 343 951 b 132 764 214 951 132 894 b 140 654 132 729 136 692 b 147 546 143 618 147 581 b 42 451 147 506 138 456 z "},"|":{"ha":393,"x_min":0,"x_max":0,"o":"m 122 1042 l 122 -347 l 269 -347 l 269 1042 z "},"}":{"ha":436,"x_min":0,"x_max":0,"o":"m 394 451 b 289 546 299 456 289 506 b 297 654 289 581 293 618 b 304 764 300 692 304 729 b 93 951 304 894 222 951 l 44 951 l 44 833 l 69 833 b 154 735 132 832 154 796 b 147 657 154 711 151 685 b 140 561 144 628 140 597 b 258 400 139 457 182 417 l 258 397 b 140 236 182 382 139 342 b 147 139 140 200 144 168 b 154 61 151 111 154 85 b 69 -39 154 0 133 -37 l 44 -39 l 44 -156 l 94 -156 b 304 33 218 -156 304 -106 b 297 143 304 68 300 106 b 289 251 293 181 289 217 b 394 346 289 289 299 342 z "},"~":{"ha":828,"x_min":0,"x_max":0,"o":"m 192 268 b 257 381 197 357 222 381 b 389 324 290 381 328 358 b 583 257 464 281 517 257 b 768 518 689 257 776 321 l 636 518 b 581 406 633 435 613 406 b 447 460 546 406 508 426 b 253 526 368 504 321 526 b 60 268 140 526 58 453 z "},"¡":{"ha":372,"x_min":0,"x_max":0,"o":"m 296 -265 l 265 361 l 107 361 l 76 -265 z m 188 685 b 63 558 114 685 63 632 b 188 432 63 485 113 432 b 311 558 263 432 310 485 b 189 685 311 632 261 685 z "},"¢":{"ha":771,"x_min":0,"x_max":0,"o":"m 524 -15 l 524 117 b 663 149 579 121 629 133 l 638 301 b 500 276 601 288 558 276 b 319 463 403 276 319 339 b 499 650 319 575 389 650 b 622 625 553 650 593 640 l 656 781 b 524 808 618 796 568 807 l 524 935 l 388 935 l 388 801 b 104 456 204 767 104 622 b 181 226 104 364 132 283 b 388 121 231 171 299 133 l 388 -15 z "},"£":{"ha":771,"x_min":0,"x_max":0,"o":"m 704 0 l 704 172 l 333 172 l 333 175 b 401 274 367 204 389 239 b 414 372 411 306 414 339 l 586 372 l 586 517 l 394 517 b 382 619 388 551 382 583 b 511 750 382 688 413 750 b 629 725 563 750 601 740 l 663 885 b 500 918 632 901 575 918 b 186 629 313 918 186 803 b 197 517 186 590 190 551 l 86 517 l 86 372 l 222 372 b 226 317 226 354 226 336 b 71 113 226 222 146 143 l 71 0 z "},"⁄":{"ha":589,"x_min":0,"x_max":0,"o":"m 96 -15 l 608 918 l 493 918 l -19 -15 z "},"∕":{"ha":589,"x_min":0,"x_max":0,"o":"m 96 -15 l 608 918 l 493 918 l -19 -15 z "},"¥":{"ha":771,"x_min":0,"x_max":0,"o":"m 478 0 l 478 222 l 696 222 l 696 321 l 478 321 l 478 410 l 696 410 l 696 508 l 531 508 l 768 903 l 546 903 l 447 682 b 388 529 424 628 406 575 l 385 529 b 326 681 367 578 351 625 l 229 903 l 3 903 l 229 508 l 63 508 l 63 410 l 279 410 l 279 321 l 63 321 l 63 222 l 279 222 l 279 0 z "},"ƒ":{"ha":771,"x_min":0,"x_max":0,"o":"m 158 425 l 268 425 l 246 231 b 133 32 225 72 201 33 b 68 44 110 33 88 36 l 38 -103 b 164 -126 60 -114 107 -125 b 439 176 361 -126 418 7 l 471 425 l 629 425 l 629 571 l 488 571 l 496 632 b 607 758 504 708 538 758 b 672 746 633 758 656 753 l 706 896 b 590 918 682 908 638 918 b 290 617 351 918 301 710 l 285 571 l 158 571 z "},"§":{"ha":779,"x_min":0,"x_max":0,"o":"m 226 476 b 276 550 226 508 247 535 b 456 482 318 529 397 504 b 551 382 524 456 551 421 b 510 308 551 353 535 324 b 347 368 479 325 411 346 b 226 475 264 397 226 432 z m 644 908 b 425 950 579 938 506 950 b 122 735 256 950 122 875 b 178 608 122 682 149 632 b 63 439 100 569 63 499 b 339 199 63 300 192 244 b 486 94 444 165 486 140 b 361 24 486 47 435 24 b 150 82 276 24 192 57 l 110 -47 b 369 -108 185 -94 286 -108 b 678 114 499 -108 678 -56 b 617 243 678 176 643 222 b 717 413 675 282 717 338 b 453 656 717 556 603 610 b 304 753 353 686 304 711 b 428 819 304 793 347 819 b 611 781 511 819 569 800 z "},"¤":{"ha":771,"x_min":0,"x_max":0,"o":"m 385 764 b 225 713 322 764 267 746 l 118 831 l 25 735 l 146 628 b 97 463 122 592 97 540 b 147 297 97 386 122 332 l 32 188 l 122 94 l 222 214 b 383 161 263 179 326 161 b 546 217 439 161 503 181 l 647 94 l 739 188 l 621 300 b 669 467 646 335 669 389 b 625 628 669 542 646 592 l 746 736 l 653 831 l 547 714 b 386 764 506 746 450 764 z m 385 622 b 513 465 460 622 513 556 b 385 303 513 353 447 303 b 257 464 326 303 257 354 b 383 622 257 560 313 622 z "},"'":{"ha":285,"x_min":0,"x_max":0,"o":"m 50 961 l 81 585 l 206 585 l 236 961 z "},"“":{"ha":631,"x_min":0,"x_max":0,"o":"m 232 586 b 329 961 251 708 288 843 l 201 950 b 35 574 139 844 78 710 z m 504 586 b 601 961 524 708 558 843 l 474 950 b 307 574 410 844 350 710 z "},"«":{"ha":646,"x_min":0,"x_max":0,"o":"m 344 615 l 197 615 l 36 350 l 197 86 l 344 86 l 178 350 z m 614 615 l 467 615 l 306 350 l 467 86 l 614 86 l 447 350 z "},"‹":{"ha":375,"x_min":0,"x_max":0,"o":"m 344 615 l 197 615 l 36 350 l 197 86 l 344 86 l 178 350 z "},"›":{"ha":375,"x_min":0,"x_max":0,"o":"m 197 350 l 31 86 l 176 86 l 339 350 l 176 615 l 31 615 z "},"ﬁ":{"ha":817,"x_min":0,"x_max":0,"o":"m 321 0 l 321 524 l 521 524 l 521 0 l 732 0 l 732 679 l 319 679 l 319 703 b 469 835 319 778 358 835 b 624 800 536 835 590 818 l 664 960 b 464 1001 622 985 536 1001 b 110 708 254 1001 110 896 l 110 679 l 19 679 l 19 524 l 110 524 l 110 0 z "},"ﬂ":{"ha":817,"x_min":0,"x_max":0,"o":"m 321 0 l 321 524 l 443 524 l 443 679 l 319 679 l 319 706 b 440 844 319 783 356 844 b 521 831 479 844 506 839 l 521 0 l 732 0 l 732 944 b 471 1001 664 981 572 1001 b 213 925 363 1001 279 978 b 110 708 147 872 110 786 l 110 679 l 19 679 l 19 524 l 110 524 l 110 0 z "},"–":{"ha":694,"x_min":0,"x_max":0,"o":"m 42 418 l 42 288 l 653 288 l 653 418 z "},"†":{"ha":728,"x_min":0,"x_max":0,"o":"m 267 936 l 286 657 l 47 674 l 47 510 l 286 528 l 267 -69 l 460 -69 l 440 528 l 679 510 l 679 674 l 440 657 l 460 936 z "},"‡":{"ha":728,"x_min":0,"x_max":0,"o":"m 269 936 l 283 679 l 47 694 l 47 531 l 283 549 l 283 329 l 47 346 l 47 182 l 283 199 l 269 -69 l 458 -69 l 443 199 l 679 182 l 679 346 l 443 329 l 443 549 l 679 531 l 679 694 l 443 679 l 457 936 z "},"·":{"ha":361,"x_min":0,"x_max":0,"o":"m 181 246 b 306 374 256 246 306 300 b 182 503 304 450 254 503 b 57 374 108 503 57 450 b 179 246 57 300 108 246 z "},"∙":{"ha":361,"x_min":0,"x_max":0,"o":"m 181 246 b 306 374 256 246 306 300 b 182 503 304 450 254 503 b 57 374 108 503 57 450 b 179 246 57 300 108 246 z "},"¶":{"ha":753,"x_min":0,"x_max":0,"o":"m 419 -65 l 419 811 l 519 811 l 519 -65 l 653 -65 l 653 926 b 454 942 610 936 538 942 b 44 626 119 942 42 774 b 278 367 47 449 197 367 l 286 367 l 286 -65 z "},"•":{"ha":469,"x_min":0,"x_max":0,"o":"m 235 296 b 415 476 336 296 415 375 b 235 658 415 579 335 658 b 54 476 135 658 53 579 b 233 296 54 374 135 296 z "},"‚":{"ha":361,"x_min":0,"x_max":0,"o":"m 150 -133 b 317 243 214 -28 274 107 l 119 231 b 22 -144 100 108 64 -26 z "},"„":{"ha":638,"x_min":0,"x_max":0,"o":"m 149 -133 b 315 243 213 -28 272 107 l 118 231 b 21 -144 99 108 64 -26 z m 421 -133 b 588 243 483 -28 544 107 l 390 231 b 293 -144 371 108 335 -26 z "},"”":{"ha":631,"x_min":0,"x_max":0,"o":"m 131 949 b 33 574 111 826 76 693 l 161 586 b 328 961 225 690 285 826 z m 403 949 b 306 574 383 826 347 693 l 433 586 b 600 961 496 690 557 826 z "},"»":{"ha":646,"x_min":0,"x_max":0,"o":"m 197 350 l 32 86 l 178 86 l 339 350 l 176 615 l 32 615 z m 464 350 l 299 86 l 443 86 l 606 350 l 443 615 l 299 615 z "},"…":{"ha":1389,"x_min":0,"x_max":0,"o":"m 231 -15 b 356 113 306 -15 356 39 b 232 242 354 190 304 242 b 107 113 158 242 107 189 b 229 -15 107 39 158 -15 z m 693 -15 b 818 113 768 -15 818 39 b 694 242 817 190 767 242 b 569 113 621 242 569 189 b 692 -15 569 39 621 -15 z m 1156 -15 b 1281 113 1231 -15 1281 39 b 1157 242 1279 190 1229 242 b 1032 113 1083 242 1032 189 b 1154 -15 1032 39 1083 -15 z "},"‰":{"ha":1785,"x_min":0,"x_max":0,"o":"m 290 918 b 38 635 136 918 38 796 b 283 363 38 465 146 363 b 533 650 414 363 533 463 b 292 918 533 804 446 918 z m 288 803 b 378 640 353 803 378 732 b 289 478 378 539 349 478 b 196 640 228 478 194 546 b 286 803 196 731 224 803 z m 940 543 b 689 260 788 543 689 421 b 933 -12 689 90 797 -12 b 1183 275 1064 -12 1183 88 b 942 543 1183 429 1096 543 z m 939 428 b 1028 265 1003 428 1028 357 b 939 103 1028 164 999 103 b 847 265 878 103 846 171 b 938 428 847 356 875 428 z m 1501 543 b 1249 260 1347 543 1249 421 b 1494 -12 1249 90 1357 -12 b 1744 275 1625 -12 1744 88 b 1503 543 1744 429 1657 543 z m 1499 428 b 1589 265 1564 428 1589 357 b 1500 103 1589 164 1560 103 b 1407 265 1439 103 1406 171 b 1497 428 1407 356 1435 428 z m 407 -15 l 925 917 l 813 917 l 293 -15 z "},"¿":{"ha":618,"x_min":0,"x_max":0,"o":"m 344 685 b 221 558 271 685 221 632 b 344 432 221 485 269 432 b 468 558 419 432 468 485 b 346 685 468 632 418 685 z m 250 367 l 250 342 b 179 169 251 279 229 225 b 60 -65 126 110 60 42 b 326 -281 60 -179 144 -281 b 558 -224 426 -281 508 -253 l 513 -72 b 374 -114 475 -99 421 -114 b 274 -32 306 -112 274 -79 b 354 114 274 15 310 61 b 436 331 417 188 439 260 l 433 367 z "},"`":{"ha":417,"x_min":0,"x_max":0,"o":"m 6 972 l 175 761 l 319 761 l 200 972 z "},"´":{"ha":417,"x_min":0,"x_max":0,"o":"m 224 972 l 104 761 l 249 761 l 418 972 z "},"ˆ":{"ha":417,"x_min":0,"x_max":0,"o":"m 142 972 l 4 761 l 138 761 l 207 881 l 210 881 l 279 761 l 413 761 l 275 972 z "},"˜":{"ha":417,"x_min":0,"x_max":0,"o":"m 110 772 b 143 835 113 814 125 835 b 197 814 160 835 172 828 b 294 782 226 797 254 782 b 403 951 365 782 406 832 l 311 951 b 274 890 307 904 297 890 b 214 917 256 890 236 903 b 122 946 188 931 161 946 b 15 772 53 946 13 882 z "},"¯":{"ha":417,"x_min":0,"x_max":0,"o":"m 36 918 l 36 810 l 383 810 l 383 918 z "},"ˉ":{"ha":417,"x_min":0,"x_max":0,"o":"m 36 918 l 36 810 l 383 810 l 383 918 z "},"˘":{"ha":417,"x_min":0,"x_max":0,"o":"m 29 956 b 208 778 31 856 82 778 b 389 956 329 778 388 851 l 288 956 b 207 872 285 917 265 872 b 131 956 158 872 136 910 z "},"˙":{"ha":417,"x_min":0,"x_max":0,"o":"m 169 760 b 261 854 222 760 261 803 b 169 949 261 908 222 949 b 74 854 115 949 74 908 b 168 760 74 803 115 760 z "},"¨":{"ha":417,"x_min":0,"x_max":0,"o":"m 68 760 b 160 854 121 760 160 803 b 68 949 160 908 121 949 b -28 854 14 949 -28 908 b 67 760 -28 803 14 760 z m 350 760 b 443 854 404 760 443 803 b 350 949 443 908 404 949 b 256 854 296 949 256 908 b 349 760 256 803 294 760 z "},"˚":{"ha":556,"x_min":0,"x_max":0,"o":"m 279 1021 b 119 882 176 1021 119 960 b 279 747 119 806 181 747 b 436 883 375 747 436 806 b 281 1021 436 961 382 1021 z m 279 951 b 342 883 319 951 342 918 b 278 817 342 847 319 817 b 217 882 239 817 217 850 b 278 951 217 918 238 951 z "},"¸":{"ha":417,"x_min":0,"x_max":0,"o":"m 168 6 l 108 -114 b 217 -164 185 -119 217 -137 b 168 -200 217 -190 192 -200 b 92 -178 146 -200 115 -192 l 64 -256 b 175 -283 92 -272 131 -283 b 344 -162 264 -283 344 -253 b 244 -61 344 -106 296 -68 l 282 6 z "},"˝":{"ha":417,"x_min":0,"x_max":0,"o":"m 86 972 l -1 767 l 115 767 l 251 972 z m 325 972 l 238 767 l 354 767 l 490 972 z "},"˛":{"ha":417,"x_min":0,"x_max":0,"o":"m 215 0 b 79 -168 161 -21 79 -90 b 210 -281 79 -240 133 -281 b 326 -257 260 -281 297 -271 l 313 -181 b 244 -196 289 -190 265 -196 b 189 -143 213 -196 188 -175 b 318 0 188 -99 246 -36 z "},"ˇ":{"ha":417,"x_min":0,"x_max":0,"o":"m 279 761 l 417 972 l 281 972 l 210 850 l 207 850 l 136 972 l 0 972 l 138 761 z "},"—":{"ha":1389,"x_min":0,"x_max":0,"o":"m 42 418 l 42 288 l 1347 288 l 1347 418 z "},"Æ":{"ha":1206,"x_min":0,"x_max":0,"o":"m 222 0 l 324 256 l 597 256 l 631 0 l 1167 0 l 1167 174 l 813 174 l 783 392 l 1110 392 l 1110 564 l 756 564 l 732 763 l 1115 763 l 1115 936 l 403 936 l 4 0 z m 388 425 l 476 650 b 525 788 492 690 510 742 l 529 788 b 546 651 533 743 540 694 l 574 425 z "},"ª":{"ha":525,"x_min":0,"x_max":0,"o":"m 474 369 b 467 478 469 396 467 436 l 467 626 b 263 821 467 729 414 821 b 78 776 179 821 114 797 l 106 686 b 235 722 138 707 183 722 b 321 669 310 722 321 682 l 321 660 b 44 499 153 660 44 606 b 193 363 44 422 101 363 b 332 415 253 361 299 383 l 335 415 l 344 369 z m 325 529 b 318 499 325 521 324 510 b 249 457 308 475 278 457 b 188 511 214 457 188 479 b 325 578 188 560 250 579 z "},"Ł":{"ha":718,"x_min":0,"x_max":0,"o":"m 685 0 l 685 178 l 313 178 l 313 467 l 488 585 l 488 732 l 313 614 l 313 936 l 101 936 l 101 474 l -3 401 l -3 256 l 101 326 l 101 0 z "},"Ø":{"ha":996,"x_min":0,"x_max":0,"o":"m 214 -92 l 297 32 b 499 -15 357 1 425 -15 b 947 474 758 -15 947 168 b 825 818 947 606 907 731 l 903 935 l 783 1015 l 707 903 b 500 951 647 935 576 951 b 49 467 228 951 49 740 b 178 115 49 328 94 203 l 100 -3 z m 297 297 l 296 296 b 260 468 271 351 260 404 b 499 786 260 653 349 786 b 608 751 540 786 578 774 z m 703 629 l 706 629 b 736 469 728 575 736 522 b 499 150 736 281 646 150 b 396 183 457 150 422 161 z "},"Œ":{"ha":1300,"x_min":0,"x_max":0,"o":"m 1246 174 l 861 174 l 861 396 l 1206 396 l 1206 568 l 861 568 l 861 763 l 1226 763 l 1226 936 l 735 936 b 647 943 711 936 682 940 b 522 951 614 947 572 951 b 49 460 239 951 49 760 b 518 -15 49 207 199 -15 b 633 -8 564 -15 601 -11 b 718 0 665 -4 693 0 l 1246 0 z m 650 169 b 556 153 626 158 589 153 b 272 468 374 153 272 283 b 540 783 272 674 394 783 b 650 764 586 783 624 776 z "},"º":{"ha":536,"x_min":0,"x_max":0,"o":"m 269 821 b 33 588 131 821 33 728 b 265 363 33 450 136 363 b 503 596 388 363 503 438 b 271 821 503 725 413 821 z m 268 718 b 354 593 325 718 354 651 b 269 465 354 518 324 465 b 183 589 215 465 183 522 b 267 718 183 646 206 718 z "},"æ":{"ha":1115,"x_min":0,"x_max":0,"o":"m 1068 282 b 1074 360 1069 300 1074 332 b 789 696 1074 522 990 696 b 557 586 689 696 610 656 l 553 586 b 329 696 513 656 439 696 b 89 632 228 696 139 660 l 131 499 b 311 549 172 524 242 549 b 442 468 419 549 442 488 l 442 449 b 40 199 201 450 40 365 b 275 -14 40 82 126 -14 b 528 107 393 -14 475 35 l 532 107 b 792 -14 579 29 679 -14 b 1042 38 876 -14 967 -1 l 1013 178 b 822 142 960 157 907 142 b 639 283 715 142 642 196 z m 447 247 b 442 206 447 232 446 217 b 333 133 425 167 388 133 b 247 214 286 133 247 161 b 447 319 247 292 333 321 z m 638 426 b 764 557 639 475 675 557 b 879 426 861 557 881 469 z "},"ı":{"ha":381,"x_min":0,"x_max":0,"o":"m 296 0 l 296 679 l 85 679 l 85 0 z "},"ł":{"ha":399,"x_min":0,"x_max":0,"o":"m 304 0 l 304 475 l 403 554 l 403 706 l 304 626 l 304 986 l 93 986 l 93 469 l 3 397 l 3 247 l 93 318 l 93 0 z "},"ø":{"ha":801,"x_min":0,"x_max":0,"o":"m 400 694 b 46 338 190 694 46 551 b 164 68 46 219 90 128 l 103 -22 l 172 -78 l 240 21 b 401 -15 288 -4 343 -15 b 754 342 578 -15 754 100 b 640 610 754 456 713 547 l 704 703 l 631 753 l 565 658 b 401 694 517 682 461 694 z m 278 231 l 274 231 b 250 339 257 263 250 301 b 400 543 250 435 290 543 b 476 518 431 543 456 535 z m 528 443 l 531 442 b 553 336 547 408 553 368 b 401 136 553 217 496 136 b 331 161 375 136 350 143 z "},"œ":{"ha":1206,"x_min":0,"x_max":0,"o":"m 1160 276 b 1165 358 1161 292 1165 326 b 869 696 1165 524 1085 696 b 633 575 774 696 688 654 l 631 575 b 392 696 585 654 490 696 b 46 340 190 696 46 553 b 378 -14 46 118 194 -14 b 632 107 479 -14 575 24 l 636 107 b 886 -14 697 18 788 -14 b 1133 38 951 -14 1058 -4 l 1104 179 b 915 143 1049 158 996 143 b 731 278 817 143 736 194 z m 403 544 b 535 343 494 544 535 449 b 400 138 535 219 486 138 b 264 342 313 138 264 226 b 401 544 264 436 296 544 z m 726 421 b 850 554 728 474 764 554 b 968 421 953 554 968 468 z "},"ß":{"ha":833,"x_min":0,"x_max":0,"o":"m 296 0 l 296 617 b 429 840 296 785 351 840 b 536 729 496 840 536 792 b 526 679 536 710 533 694 b 415 507 454 640 415 576 b 522 310 415 417 476 357 b 572 214 556 274 572 249 b 479 143 572 174 539 143 b 383 163 442 143 408 150 l 357 7 b 506 -15 396 -8 454 -15 b 785 224 683 -15 785 82 b 676 442 785 329 722 392 b 628 533 643 476 628 501 b 708 631 628 568 653 604 b 740 744 728 657 740 703 b 442 1001 740 901 610 1001 b 192 914 335 1001 251 971 b 85 599 124 851 85 757 l 85 0 z "},"¹":{"ha":510,"x_min":0,"x_max":0,"o":"m 369 369 l 369 911 l 228 911 l 74 844 l 94 731 l 206 779 l 207 779 l 207 369 z "},"¬":{"ha":828,"x_min":0,"x_max":0,"o":"m 56 586 l 56 457 l 638 457 l 638 147 l 772 147 l 772 586 z "},"µ":{"ha":810,"x_min":0,"x_max":0,"o":"m 725 679 l 514 679 l 514 257 b 401 158 506 214 467 158 b 293 317 321 158 293 222 l 293 679 l 82 679 l 82 -275 l 271 -275 l 254 32 l 258 32 b 360 -11 283 -1 324 -11 b 533 99 454 -11 511 58 l 538 99 l 547 0 l 731 0 b 725 218 728 57 725 129 z "},"μ":{"ha":810,"x_min":0,"x_max":0,"o":"m 725 679 l 514 679 l 514 257 b 401 158 506 214 467 158 b 293 317 321 158 293 222 l 293 679 l 82 679 l 82 -275 l 271 -275 l 254 32 l 258 32 b 360 -11 283 -1 324 -11 b 533 99 454 -11 511 58 l 538 99 l 547 0 l 731 0 b 725 218 728 57 725 129 z "},"™":{"ha":1204,"x_min":0,"x_max":0,"o":"m 22 936 l 22 825 l 175 825 l 175 385 l 310 385 l 310 825 l 465 825 l 465 936 z m 1143 385 l 1107 936 l 933 936 l 867 722 b 822 563 851 675 838 618 l 819 563 b 781 721 806 617 794 672 l 719 936 l 535 936 l 497 385 l 619 385 l 633 650 b 638 835 636 706 636 769 l 640 835 b 685 651 657 771 671 706 l 756 394 l 860 394 l 940 647 b 992 835 957 703 976 772 l 994 835 b 999 647 997 763 996 703 l 1011 385 z "},"Ð":{"ha":978,"x_min":0,"x_max":0,"o":"m 4 394 l 103 394 l 103 0 b 343 -12 154 -6 233 -12 b 775 110 525 -12 676 26 b 929 492 864 186 929 311 b 771 850 929 657 868 778 b 388 947 682 918 565 947 b 103 926 282 947 181 940 l 103 560 l 4 560 z m 500 560 l 314 560 l 314 776 b 410 785 332 781 363 785 b 706 485 593 785 706 689 b 388 153 706 256 582 153 b 314 157 363 153 332 153 l 314 394 l 500 394 z "},"½":{"ha":1154,"x_min":0,"x_max":0,"o":"m 329 369 l 329 911 l 188 911 l 33 844 l 54 731 l 165 779 l 167 779 l 167 369 z m 324 -15 l 835 918 l 719 918 l 208 -15 z m 674 0 l 1101 0 l 1101 121 l 899 121 l 899 124 l 932 151 b 1092 381 1015 218 1092 282 b 881 549 1092 475 1018 549 b 678 489 796 549 724 522 l 719 383 b 839 422 750 404 793 422 b 921 356 892 422 921 394 b 760 156 921 296 864 249 l 674 79 z "},"±":{"ha":828,"x_min":0,"x_max":0,"o":"m 346 804 l 346 564 l 56 564 l 56 435 l 346 435 l 346 189 l 482 189 l 482 435 l 772 435 l 772 564 l 482 564 l 482 804 z m 56 129 l 56 0 l 772 0 l 772 129 z "},"Þ":{"ha":806,"x_min":0,"x_max":0,"o":"m 92 0 l 300 0 l 300 185 b 396 178 319 182 351 178 b 763 496 596 178 763 267 b 672 699 763 578 729 650 b 415 774 610 751 526 774 b 300 768 357 774 326 771 l 300 936 l 92 936 z m 300 606 b 392 613 317 610 347 613 b 554 479 494 613 554 565 b 388 342 554 399 501 342 b 300 350 353 342 321 344 z "},"¼":{"ha":1154,"x_min":0,"x_max":0,"o":"m 1032 0 l 1032 125 l 1106 125 l 1106 228 l 1032 228 l 1032 547 l 847 547 l 610 213 l 610 125 l 882 125 l 882 0 z m 882 228 l 760 228 l 757 229 l 835 343 b 885 433 851 369 867 400 l 888 433 b 882 331 886 400 882 367 z m 346 369 l 346 911 l 204 911 l 50 844 l 71 731 l 182 779 l 183 779 l 183 369 z m 356 -15 l 868 918 l 753 918 l 240 -15 z "},"÷":{"ha":828,"x_min":0,"x_max":0,"o":"m 414 511 b 515 614 475 511 515 553 b 414 717 514 676 475 717 b 313 614 354 717 313 676 b 413 511 313 553 353 511 z m 771 306 l 771 435 l 54 435 l 54 306 z m 413 24 b 514 126 474 24 514 65 b 413 229 513 189 474 229 b 311 126 353 229 311 189 b 411 24 311 65 351 24 z "},"¦":{"ha":393,"x_min":0,"x_max":0,"o":"m 122 242 l 122 -244 l 269 -244 l 269 242 z m 122 936 l 122 450 l 269 450 l 269 936 z "},"°":{"ha":494,"x_min":0,"x_max":0,"o":"m 249 951 b 38 744 131 951 36 860 b 247 543 38 633 125 543 b 460 749 361 543 460 629 b 250 951 460 857 375 951 z m 250 854 b 350 747 315 854 350 801 b 250 640 350 686 308 640 b 150 746 193 640 150 686 b 249 854 150 803 189 854 z "},"þ":{"ha":831,"x_min":0,"x_max":0,"o":"m 85 939 l 85 -275 l 296 -275 l 296 64 l 299 64 b 478 -15 333 18 394 -15 b 783 346 618 -15 783 94 b 501 694 783 571 646 697 b 299 596 407 694 339 656 l 296 596 l 296 939 z m 296 394 b 310 451 296 413 303 436 b 431 529 332 500 378 529 b 569 343 518 529 569 447 b 425 147 569 222 513 147 b 315 213 378 147 336 174 b 296 278 303 229 296 258 z "},"¾":{"ha":1154,"x_min":0,"x_max":0,"o":"m 89 772 b 215 807 117 788 167 807 b 289 757 267 807 289 786 b 182 700 289 714 228 700 l 143 700 l 143 606 l 185 606 b 304 536 246 606 304 583 b 206 474 304 500 263 474 b 69 510 156 474 97 493 l 38 401 b 225 363 78 379 150 363 b 475 528 378 363 475 431 b 340 654 475 599 417 647 l 340 657 b 454 781 407 678 454 721 b 254 918 454 857 388 918 b 60 874 174 918 100 897 z m 400 -15 l 911 918 l 796 918 l 286 -15 z m 1044 0 l 1044 125 l 1118 125 l 1118 228 l 1044 228 l 1044 547 l 860 547 l 622 213 l 622 125 l 894 125 l 894 0 z m 894 228 l 772 228 l 769 229 l 847 343 b 897 433 864 369 879 400 l 900 433 b 894 331 899 400 894 367 z "},"²":{"ha":522,"x_min":0,"x_max":0,"o":"m 47 369 l 475 369 l 475 490 l 272 490 l 272 493 l 306 521 b 465 750 389 588 465 651 b 254 918 465 844 392 918 b 51 858 169 918 97 892 l 93 753 b 213 792 124 774 167 792 b 294 725 265 792 294 764 b 133 525 294 665 238 618 l 47 449 z "},"®":{"ha":708,"x_min":0,"x_max":0,"o":"m 356 951 b 43 639 183 951 43 811 b 356 325 43 464 183 325 b 667 639 529 325 667 464 b 357 951 667 811 529 951 z m 356 889 b 594 638 488 889 594 776 b 356 388 594 497 488 386 b 118 638 224 388 118 497 b 354 889 118 776 224 889 z m 301 600 l 335 600 b 400 547 372 600 394 585 b 421 457 407 500 413 469 l 497 457 b 478 543 492 468 485 489 b 422 628 472 594 453 622 l 422 631 b 489 711 460 640 489 669 b 458 786 489 747 478 771 b 339 814 435 804 399 814 b 228 804 286 814 256 808 l 228 457 l 301 457 z m 301 757 b 342 758 311 758 324 758 b 413 707 392 758 413 736 b 336 657 413 671 379 657 l 301 657 z "},"−":{"ha":828,"x_min":0,"x_max":0,"o":"m 56 436 l 56 307 l 772 307 l 772 436 z "},"ð":{"ha":797,"x_min":0,"x_max":0,"o":"m 399 136 b 264 331 311 136 264 225 b 401 528 264 415 297 528 b 500 482 446 528 478 510 b 533 336 524 453 533 408 b 400 136 533 218 488 136 z m 150 664 l 350 750 b 471 633 397 718 438 678 l 468 629 b 369 657 435 653 404 658 b 47 329 194 653 47 528 b 399 -15 47 118 200 -15 b 753 357 578 -15 753 100 b 696 615 753 453 735 540 b 526 825 656 696 597 768 l 672 889 l 631 969 l 439 888 b 219 997 371 932 293 971 l 129 879 b 258 813 174 860 218 839 l 113 747 z "},"×":{"ha":828,"x_min":0,"x_max":0,"o":"m 56 638 l 322 365 l 56 93 l 147 0 l 414 272 l 681 0 l 772 93 l 506 365 l 772 638 l 682 731 l 414 457 l 146 731 z "},"³":{"ha":518,"x_min":0,"x_max":0,"o":"m 92 772 b 218 807 119 788 169 807 b 292 757 269 807 292 786 b 185 700 292 714 231 700 l 146 700 l 146 606 l 188 606 b 307 536 249 606 307 583 b 208 474 307 500 265 474 b 72 510 158 474 100 494 l 40 401 b 228 363 81 379 153 363 b 478 528 381 363 478 431 b 343 654 478 599 419 647 l 343 657 b 457 781 410 678 457 721 b 257 918 457 857 390 918 b 63 874 176 918 103 897 z "},"©":{"ha":940,"x_min":0,"x_max":0,"o":"m 472 900 b 44 472 235 900 44 708 b 472 42 44 233 235 42 b 896 472 708 42 896 233 b 474 900 896 708 708 900 z m 472 821 b 806 471 657 821 806 665 b 472 121 806 275 657 119 b 138 471 286 121 138 275 b 471 821 138 665 286 821 z m 658 683 b 504 722 640 703 572 722 b 236 464 365 722 236 624 b 492 213 236 322 331 213 b 664 257 549 213 615 225 l 643 329 b 504 294 613 308 560 294 b 333 468 403 294 333 368 b 504 640 333 576 397 640 b 638 608 567 640 621 619 z "},"Á":{"ha":911,"x_min":0,"x_max":0,"o":"m 578 240 l 650 0 l 878 0 l 586 936 l 310 936 l 24 0 l 243 0 l 308 240 z m 339 399 l 396 597 b 438 778 410 651 425 722 l 442 778 b 488 597 456 724 472 653 l 546 399 z m 482 1161 l 361 986 l 528 986 l 701 1161 z "},"Â":{"ha":911,"x_min":0,"x_max":0,"o":"m 578 240 l 650 0 l 878 0 l 586 936 l 310 936 l 24 0 l 243 0 l 308 240 z m 339 399 l 396 597 b 438 778 410 651 425 722 l 442 778 b 488 597 456 724 472 653 l 546 399 z m 385 1161 l 243 986 l 389 986 l 458 1078 l 461 1078 l 531 986 l 678 986 l 535 1161 z "},"Ä":{"ha":911,"x_min":0,"x_max":0,"o":"m 578 240 l 650 0 l 878 0 l 586 936 l 311 936 l 25 0 l 243 0 l 310 240 z m 340 399 l 396 597 b 439 778 411 651 425 722 l 442 778 b 489 597 456 724 472 653 l 546 399 z m 321 990 b 411 1083 372 990 411 1033 b 321 1178 411 1138 371 1178 b 225 1083 267 1178 225 1138 b 319 990 225 1033 267 990 z m 601 990 b 693 1083 654 990 693 1033 b 601 1178 693 1138 653 1178 b 507 1083 547 1178 507 1138 b 600 990 507 1033 546 990 z "},"À":{"ha":911,"x_min":0,"x_max":0,"o":"m 578 240 l 650 0 l 878 0 l 586 936 l 310 936 l 24 0 l 243 0 l 308 240 z m 339 399 l 396 597 b 438 778 410 651 425 722 l 442 778 b 488 597 456 724 472 653 l 546 399 z m 204 1163 l 378 989 l 544 989 l 424 1163 z "},"Å":{"ha":911,"x_min":0,"x_max":0,"o":"m 582 240 l 654 0 l 883 0 l 590 939 b 639 1036 621 957 639 993 b 457 1182 639 1119 581 1182 b 275 1035 339 1182 275 1113 b 317 942 275 993 292 958 l 29 0 l 249 0 l 314 240 z m 456 1111 b 528 1039 501 1111 528 1081 b 456 965 528 994 501 965 b 386 1038 413 965 386 997 b 454 1111 386 1079 410 1111 z m 343 399 l 401 608 b 442 778 415 660 431 726 l 444 778 b 490 604 458 724 475 656 l 550 399 z "},"Ã":{"ha":911,"x_min":0,"x_max":0,"o":"m 579 240 l 651 0 l 879 0 l 588 936 l 310 936 l 24 0 l 243 0 l 308 240 z m 339 399 l 394 597 b 439 778 410 651 425 722 l 442 778 b 489 597 456 724 472 653 l 547 399 z m 360 993 b 393 1053 363 1033 375 1053 b 454 1028 413 1053 429 1042 b 544 1001 479 1014 507 1001 b 654 1171 617 1001 657 1050 l 560 1171 b 522 1111 554 1124 546 1111 b 460 1138 504 1111 483 1124 b 369 1165 435 1153 407 1165 b 264 993 304 1165 260 1110 z "},"Ç":{"ha":829,"x_min":0,"x_max":0,"o":"m 747 192 b 569 161 704 174 635 161 b 271 467 382 161 271 279 b 568 778 271 676 401 778 b 746 743 644 778 704 761 l 789 910 b 560 951 753 929 669 951 b 49 456 276 951 49 775 b 436 -7 49 217 181 32 l 381 -114 b 489 -165 457 -119 489 -139 b 440 -200 489 -190 464 -200 b 364 -178 418 -200 388 -192 l 336 -256 b 449 -283 363 -272 403 -283 b 617 -162 536 -283 617 -253 b 517 -61 617 -107 569 -68 l 543 -15 b 782 25 654 -14 743 7 z "},"É":{"ha":742,"x_min":0,"x_max":0,"o":"m 649 568 l 304 568 l 304 763 l 669 763 l 669 936 l 93 936 l 93 0 l 689 0 l 689 174 l 304 174 l 304 396 l 649 396 z m 407 1161 l 286 986 l 453 986 l 626 1161 z "},"Ê":{"ha":742,"x_min":0,"x_max":0,"o":"m 649 568 l 304 568 l 304 763 l 669 763 l 669 936 l 93 936 l 93 0 l 689 0 l 689 174 l 304 174 l 304 396 l 649 396 z m 313 1161 l 172 986 l 318 986 l 386 1078 l 389 1078 l 458 986 l 606 986 l 463 1161 z "},"Ë":{"ha":742,"x_min":0,"x_max":0,"o":"m 649 568 l 304 568 l 304 763 l 669 763 l 669 936 l 93 936 l 93 0 l 689 0 l 689 174 l 304 174 l 304 396 l 649 396 z m 240 990 b 331 1083 292 990 331 1033 b 240 1178 331 1138 290 1178 b 146 1083 188 1178 146 1138 b 239 990 146 1033 186 990 z m 522 990 b 614 1083 575 990 614 1033 b 522 1178 614 1138 574 1178 b 428 1083 468 1178 428 1138 b 521 990 428 1033 467 990 z "},"È":{"ha":742,"x_min":0,"x_max":0,"o":"m 649 568 l 304 568 l 304 763 l 669 763 l 669 936 l 93 936 l 93 0 l 689 0 l 689 174 l 304 174 l 304 396 l 649 396 z m 154 1161 l 328 989 l 494 989 l 374 1161 z "},"Í":{"ha":396,"x_min":0,"x_max":0,"o":"m 93 936 l 93 0 l 304 0 l 304 936 z m 219 1161 l 99 986 l 264 986 l 439 1161 z "},"Î":{"ha":396,"x_min":0,"x_max":0,"o":"m 93 936 l 93 0 l 304 0 l 304 936 z m 124 1161 l -17 986 l 128 986 l 197 1078 l 200 1078 l 269 986 l 415 986 l 274 1161 z "},"Ï":{"ha":396,"x_min":0,"x_max":0,"o":"m 93 936 l 93 0 l 304 0 l 304 936 z m 58 990 b 150 1083 110 990 150 1033 b 58 1178 150 1138 108 1178 b -37 1083 4 1178 -37 1138 b 57 990 -37 1033 4 990 z m 340 990 b 432 1083 393 990 432 1033 b 340 1178 432 1138 392 1178 b 247 1083 286 1178 247 1138 b 339 990 247 1033 285 990 z "},"Ì":{"ha":396,"x_min":0,"x_max":0,"o":"m 93 936 l 93 0 l 304 0 l 304 936 z m -42 1163 l 133 989 l 299 989 l 178 1163 z "},"Ñ":{"ha":958,"x_min":0,"x_max":0,"o":"m 286 0 l 286 282 b 276 692 286 435 283 567 l 282 692 b 444 361 326 582 388 463 l 646 0 l 867 0 l 867 936 l 674 936 l 674 664 b 689 272 674 522 676 396 l 686 272 b 533 593 644 378 590 494 l 338 936 l 92 936 l 92 0 z m 381 993 b 414 1053 383 1033 396 1053 b 475 1028 433 1053 450 1042 b 565 1001 500 1014 528 1001 b 674 1171 638 1001 678 1050 l 581 1171 b 543 1111 575 1124 567 1111 b 481 1138 525 1111 504 1124 b 390 1165 456 1153 428 1165 b 285 993 325 1165 281 1110 z "},"Ó":{"ha":996,"x_min":0,"x_max":0,"o":"m 490 -15 b 949 478 764 -15 949 169 b 504 951 949 736 792 951 b 49 461 229 951 49 742 b 489 -15 49 194 213 -15 z m 497 153 b 271 467 356 153 271 290 b 499 783 271 642 353 783 b 724 471 644 783 724 639 b 499 153 724 288 642 153 z m 529 1161 l 407 986 l 574 986 l 749 1161 z "},"Ô":{"ha":996,"x_min":0,"x_max":0,"o":"m 490 -15 b 949 478 764 -15 949 169 b 504 951 949 736 792 951 b 49 461 229 951 49 742 b 489 -15 49 194 213 -15 z m 497 153 b 271 467 356 153 271 290 b 499 783 271 642 353 783 b 724 471 644 783 724 639 b 499 153 724 288 642 153 z m 424 1161 l 282 986 l 428 986 l 497 1078 l 500 1078 l 569 986 l 717 986 l 574 1161 z "},"Ö":{"ha":996,"x_min":0,"x_max":0,"o":"m 490 -15 b 949 478 764 -15 949 169 b 504 951 949 736 792 951 b 49 461 228 951 49 742 b 489 -15 49 194 213 -15 z m 497 153 b 271 467 356 153 271 290 b 497 783 271 642 353 783 b 722 471 643 783 722 639 b 499 153 722 288 642 153 z m 360 990 b 450 1083 411 990 450 1033 b 360 1178 450 1138 410 1178 b 264 1083 306 1178 264 1138 b 358 990 264 1033 306 990 z m 640 990 b 732 1083 693 990 732 1033 b 640 1178 732 1138 692 1178 b 546 1083 586 1178 546 1138 b 639 990 546 1033 585 990 z "},"Ò":{"ha":996,"x_min":0,"x_max":0,"o":"m 490 -15 b 949 478 764 -15 949 169 b 504 951 949 736 792 951 b 49 461 229 951 49 742 b 489 -15 49 194 213 -15 z m 497 153 b 271 467 356 153 271 290 b 499 783 271 642 353 783 b 724 471 644 783 724 639 b 499 153 724 288 642 153 z m 256 1163 l 429 989 l 596 989 l 475 1163 z "},"Õ":{"ha":996,"x_min":0,"x_max":0,"o":"m 490 -15 b 949 478 764 -15 949 169 b 503 951 949 736 792 951 b 49 461 229 951 49 742 b 489 -15 49 194 213 -15 z m 496 153 b 271 467 354 153 271 290 b 497 783 271 642 353 783 b 724 471 643 783 724 639 b 497 153 724 288 640 153 z m 400 993 b 433 1053 403 1033 415 1053 b 493 1028 453 1053 468 1042 b 583 1001 518 1014 546 1001 b 693 1171 656 1001 696 1050 l 599 1171 b 561 1111 593 1124 585 1111 b 499 1138 543 1111 522 1124 b 410 1165 474 1153 447 1165 b 304 993 344 1165 300 1110 z "},"Š":{"ha":750,"x_min":0,"x_max":0,"o":"m 56 43 b 321 -15 108 14 214 -15 b 697 275 578 -15 697 118 b 456 556 697 408 621 494 b 282 689 333 603 282 629 b 418 779 282 736 326 779 b 613 735 508 779 576 753 l 660 903 b 421 951 604 931 528 951 b 67 671 201 951 67 831 b 325 392 67 533 169 447 b 482 261 438 353 482 318 b 333 158 482 199 431 158 b 99 217 243 158 154 188 z m 469 986 l 610 1161 l 465 1161 l 394 1068 l 392 1068 l 319 1161 l 176 1161 l 317 986 z "},"Ú":{"ha":947,"x_min":0,"x_max":0,"o":"m 92 936 l 92 414 b 465 -15 92 117 229 -15 b 856 411 710 -15 856 122 l 856 936 l 644 936 l 644 399 b 472 154 644 232 583 154 b 303 399 365 154 303 236 l 303 936 z m 501 1161 l 379 986 l 546 986 l 719 1161 z "},"Û":{"ha":947,"x_min":0,"x_max":0,"o":"m 92 936 l 92 414 b 465 -15 92 117 229 -15 b 856 411 710 -15 856 122 l 856 936 l 644 936 l 644 399 b 472 154 644 232 583 154 b 303 399 365 154 303 236 l 303 936 z m 414 1161 l 272 986 l 418 986 l 488 1078 l 490 1078 l 558 986 l 706 986 l 564 1161 z "},"Ü":{"ha":947,"x_min":0,"x_max":0,"o":"m 92 936 l 92 414 b 465 -15 92 117 229 -15 b 856 411 710 -15 856 122 l 856 936 l 644 936 l 644 399 b 472 154 644 232 583 154 b 303 399 365 154 303 236 l 303 936 z m 343 990 b 433 1083 394 990 433 1033 b 343 1178 433 1138 393 1178 b 247 1083 289 1178 247 1138 b 342 990 247 1033 288 990 z m 624 990 b 715 1083 676 990 715 1033 b 624 1178 715 1138 675 1178 b 529 1083 569 1178 529 1138 b 622 990 529 1033 568 990 z "},"Ù":{"ha":947,"x_min":0,"x_max":0,"o":"m 92 936 l 92 414 b 465 -15 92 117 229 -15 b 856 411 710 -15 856 122 l 856 936 l 644 936 l 644 399 b 472 154 644 232 583 154 b 303 399 365 154 303 236 l 303 936 z m 239 1163 l 413 989 l 579 989 l 458 1163 z "},"Ý":{"ha":838,"x_min":0,"x_max":0,"o":"m 519 0 l 519 390 l 828 936 l 590 936 l 496 711 b 425 532 468 644 446 590 l 422 532 b 350 711 400 593 379 643 l 256 936 l 13 936 l 308 383 l 308 0 z m 461 1161 l 340 986 l 506 986 l 681 1161 z "},"Ÿ":{"ha":838,"x_min":0,"x_max":0,"o":"m 519 0 l 519 390 l 828 936 l 590 936 l 496 711 b 425 532 468 644 446 590 l 422 532 b 350 711 400 593 379 643 l 256 936 l 13 936 l 308 383 l 308 0 z m 290 990 b 381 1083 342 990 381 1033 b 290 1178 381 1138 340 1178 b 194 1083 236 1178 194 1138 b 289 990 194 1033 236 990 z m 572 990 b 664 1083 625 990 664 1033 b 572 1178 664 1138 624 1178 b 478 1083 518 1178 478 1138 b 571 990 478 1033 517 990 z "},"Ž":{"ha":801,"x_min":0,"x_max":0,"o":"m 33 0 l 760 0 l 760 175 l 317 175 l 317 181 l 753 814 l 753 936 l 74 936 l 74 761 l 479 761 l 479 757 l 33 114 z m 489 986 l 629 1161 l 485 1161 l 414 1068 l 411 1068 l 340 1161 l 196 1161 l 336 986 z "},"á":{"ha":733,"x_min":0,"x_max":0,"o":"m 650 401 b 353 694 650 561 579 694 b 89 633 229 694 136 660 l 128 499 b 315 549 172 525 246 549 b 439 461 419 549 439 497 l 439 453 b 40 193 199 453 40 369 b 260 -15 40 85 122 -15 b 454 68 340 -15 410 14 l 458 68 l 471 0 l 661 0 b 650 164 653 38 650 100 z m 446 247 b 442 211 446 235 444 222 b 332 133 428 168 383 133 b 249 214 285 133 249 160 b 446 321 249 294 335 321 z m 390 972 l 271 761 l 415 761 l 585 972 z "},"â":{"ha":733,"x_min":0,"x_max":0,"o":"m 650 401 b 353 694 650 561 579 694 b 89 633 229 694 136 660 l 128 499 b 315 549 172 525 246 549 b 439 461 419 549 439 497 l 439 453 b 40 193 199 453 40 369 b 260 -15 40 85 122 -15 b 454 68 340 -15 410 14 l 458 68 l 471 0 l 661 0 b 650 164 653 38 650 100 z m 446 247 b 442 211 446 235 444 222 b 332 133 428 168 383 133 b 249 214 285 133 249 160 b 446 321 249 294 335 321 z m 294 972 l 157 761 l 290 761 l 360 881 l 363 881 l 432 761 l 565 761 l 428 972 z "},"ä":{"ha":733,"x_min":0,"x_max":0,"o":"m 650 401 b 353 694 650 561 579 694 b 89 633 229 694 136 660 l 128 499 b 315 549 172 525 246 549 b 439 461 419 549 439 497 l 439 453 b 40 193 199 453 40 369 b 260 -15 40 85 122 -15 b 454 68 340 -15 410 14 l 458 68 l 471 0 l 661 0 b 650 164 653 38 650 100 z m 446 247 b 442 211 446 235 444 222 b 332 133 428 168 383 133 b 249 214 285 133 249 160 b 446 321 249 294 335 321 z m 226 760 b 318 854 279 760 318 803 b 226 949 318 908 279 949 b 131 854 172 949 131 908 b 225 760 131 803 172 760 z m 508 760 b 601 854 563 760 601 803 b 508 949 601 908 563 949 b 414 854 454 949 414 908 b 507 760 414 803 453 760 z "},"à":{"ha":733,"x_min":0,"x_max":0,"o":"m 650 401 b 353 694 650 561 579 694 b 89 633 229 694 136 660 l 128 499 b 315 549 172 525 246 549 b 439 461 419 549 439 497 l 439 453 b 40 193 199 453 40 369 b 260 -15 40 85 122 -15 b 454 68 340 -15 410 14 l 458 68 l 471 0 l 661 0 b 650 164 653 38 650 100 z m 446 247 b 442 211 446 235 444 222 b 332 133 428 168 383 133 b 249 214 285 133 249 160 b 446 321 249 294 335 321 z m 139 972 l 308 761 l 453 761 l 333 972 z "},"å":{"ha":733,"x_min":0,"x_max":0,"o":"m 650 401 b 353 694 650 561 579 694 b 89 633 229 694 136 660 l 128 499 b 315 549 172 525 246 549 b 439 461 419 549 439 497 l 439 453 b 40 193 199 453 40 369 b 260 -15 40 85 122 -15 b 454 68 340 -15 410 14 l 458 68 l 471 0 l 661 0 b 650 164 653 38 650 100 z m 446 247 b 442 211 446 235 444 222 b 332 133 428 168 383 133 b 249 214 285 133 249 160 b 446 321 249 294 335 321 z m 369 1021 b 210 882 267 1021 210 960 b 369 747 210 806 271 747 b 526 883 465 747 526 806 b 371 1021 526 961 472 1021 z m 369 951 b 432 883 410 951 432 918 b 368 817 432 847 410 817 b 307 882 329 817 307 850 b 368 951 307 918 328 951 z "},"ã":{"ha":733,"x_min":0,"x_max":0,"o":"m 650 401 b 353 694 650 561 579 694 b 89 633 229 694 136 660 l 128 499 b 315 549 172 525 246 549 b 439 461 419 549 439 497 l 439 453 b 40 193 199 453 40 369 b 260 -15 40 85 122 -15 b 454 68 340 -15 410 14 l 458 68 l 471 0 l 661 0 b 650 164 653 38 650 100 z m 446 247 b 442 211 446 235 444 222 b 332 133 428 168 383 133 b 249 214 285 133 249 160 b 446 321 249 294 335 321 z m 256 772 b 289 835 258 814 271 835 b 343 814 306 835 318 828 b 440 782 372 797 400 782 b 549 951 511 782 551 832 l 457 951 b 419 890 453 904 443 890 b 360 917 401 890 382 903 b 268 946 333 931 307 946 b 161 772 199 946 158 882 z "},"ç":{"ha":626,"x_min":0,"x_max":0,"o":"m 571 172 b 449 150 538 158 499 150 b 263 342 346 150 263 217 b 444 532 261 453 333 532 b 564 510 501 532 538 522 l 596 668 b 435 694 553 685 490 694 b 46 335 182 694 46 532 b 322 -7 46 150 150 22 l 268 -114 b 376 -164 344 -119 376 -137 b 326 -200 376 -192 351 -200 b 251 -178 306 -200 275 -192 l 224 -256 b 335 -283 250 -272 290 -283 b 504 -162 424 -283 504 -253 b 404 -61 504 -106 456 -68 l 431 -14 b 599 17 501 -12 561 1 z "},"é":{"ha":733,"x_min":0,"x_max":0,"o":"m 685 272 b 692 357 688 289 692 321 b 389 696 692 525 608 696 b 46 333 154 696 46 506 b 408 -14 46 119 178 -14 b 654 29 500 -14 585 0 l 626 172 b 439 143 569 153 511 143 b 247 274 340 143 254 185 z m 246 418 b 378 556 251 474 288 556 b 496 418 474 556 496 468 z m 418 972 l 299 761 l 443 761 l 613 972 z "},"ê":{"ha":733,"x_min":0,"x_max":0,"o":"m 685 272 b 692 357 688 289 692 321 b 389 696 692 525 608 696 b 46 333 154 696 46 506 b 408 -14 46 119 178 -14 b 654 29 500 -14 585 0 l 626 172 b 439 143 569 153 511 143 b 247 274 340 143 254 185 z m 246 418 b 378 556 251 474 288 556 b 496 418 474 556 496 468 z m 315 972 l 178 761 l 311 761 l 381 881 l 383 881 l 453 761 l 586 761 l 449 972 z "},"ë":{"ha":733,"x_min":0,"x_max":0,"o":"m 685 272 b 692 357 688 289 692 321 b 389 696 692 525 608 696 b 46 333 154 696 46 506 b 408 -14 46 119 178 -14 b 654 29 500 -14 585 0 l 626 172 b 439 143 569 153 511 143 b 247 274 340 143 254 185 z m 246 418 b 378 556 251 474 288 556 b 496 418 474 556 496 468 z m 250 760 b 342 854 303 760 342 803 b 250 949 342 908 303 949 b 154 854 196 949 154 908 b 249 760 154 803 196 760 z m 532 760 b 625 854 586 760 625 803 b 532 949 625 908 586 949 b 438 854 478 949 438 908 b 531 760 438 803 476 760 z "},"è":{"ha":733,"x_min":0,"x_max":0,"o":"m 685 272 b 692 357 688 289 692 321 b 389 696 692 525 608 696 b 46 333 154 696 46 506 b 408 -14 46 119 178 -14 b 654 29 500 -14 585 0 l 626 172 b 439 143 569 153 511 143 b 247 274 340 143 254 185 z m 246 418 b 378 556 251 474 288 556 b 496 418 474 556 496 468 z m 167 972 l 336 761 l 481 761 l 361 972 z "},"í":{"ha":381,"x_min":0,"x_max":0,"o":"m 296 0 l 296 679 l 85 679 l 85 0 z m 222 972 l 103 761 l 247 761 l 417 972 z "},"î":{"ha":381,"x_min":0,"x_max":0,"o":"m 296 0 l 296 679 l 85 679 l 85 0 z m 124 972 l -14 761 l 119 761 l 189 881 l 192 881 l 261 761 l 394 761 l 257 972 z "},"ï":{"ha":381,"x_min":0,"x_max":0,"o":"m 296 0 l 296 679 l 85 679 l 85 0 z m 50 760 b 142 854 103 760 142 803 b 50 949 142 908 103 949 b -46 854 -4 949 -46 908 b 49 760 -46 803 -4 760 z m 332 760 b 425 854 386 760 425 803 b 332 949 425 908 386 949 b 238 854 278 949 238 908 b 331 760 238 803 276 760 z "},"ì":{"ha":381,"x_min":0,"x_max":0,"o":"m 296 0 l 296 679 l 85 679 l 85 0 z m -43 972 l 126 761 l 271 761 l 151 972 z "},"ñ":{"ha":814,"x_min":0,"x_max":0,"o":"m 85 0 l 296 0 l 296 392 b 303 444 296 411 297 431 b 411 524 318 483 353 524 b 518 376 488 524 518 464 l 518 0 l 729 0 l 729 401 b 486 694 729 601 625 694 b 276 585 372 694 304 629 l 272 585 l 263 679 l 79 679 b 85 463 82 618 85 547 z m 311 772 b 344 835 314 814 326 835 b 399 814 361 835 374 828 b 496 782 428 797 456 782 b 604 951 567 782 607 832 l 513 951 b 475 890 508 904 499 890 b 415 917 457 890 438 903 b 324 946 389 931 363 946 b 217 772 254 946 214 882 z "},"ó":{"ha":801,"x_min":0,"x_max":0,"o":"m 399 -15 b 756 346 579 -15 756 99 b 410 694 756 551 617 694 b 46 335 190 694 46 554 b 397 -15 46 115 199 -15 z m 400 136 b 263 339 311 136 263 224 b 401 543 263 440 301 543 b 536 340 497 543 536 440 b 401 136 536 218 485 136 z m 428 972 l 308 761 l 453 761 l 622 972 z "},"ô":{"ha":801,"x_min":0,"x_max":0,"o":"m 399 -15 b 756 346 579 -15 756 99 b 410 694 756 551 617 694 b 46 335 190 694 46 554 b 397 -15 46 115 199 -15 z m 400 136 b 263 339 311 136 263 224 b 401 543 263 440 301 543 b 536 340 497 543 536 440 b 401 136 536 218 485 136 z m 335 972 l 197 761 l 331 761 l 400 881 l 403 881 l 472 761 l 606 761 l 468 972 z "},"ö":{"ha":801,"x_min":0,"x_max":0,"o":"m 399 -15 b 756 346 579 -15 756 99 b 410 694 756 551 617 694 b 46 335 190 694 46 554 b 397 -15 46 115 199 -15 z m 400 136 b 263 339 311 136 263 224 b 401 543 263 440 301 543 b 536 340 497 543 536 440 b 401 136 536 218 485 136 z m 261 760 b 353 854 314 760 353 803 b 261 949 353 908 314 949 b 165 854 207 949 165 908 b 260 760 165 803 207 760 z m 543 760 b 636 854 597 760 636 803 b 543 949 636 908 597 949 b 449 854 489 949 449 908 b 542 760 449 803 488 760 z "},"ò":{"ha":801,"x_min":0,"x_max":0,"o":"m 399 -15 b 756 346 579 -15 756 99 b 410 694 756 551 617 694 b 46 335 190 694 46 554 b 397 -15 46 115 199 -15 z m 400 136 b 263 339 311 136 263 224 b 401 543 263 440 301 543 b 536 340 497 543 536 440 b 401 136 536 218 485 136 z m 185 972 l 354 761 l 499 761 l 379 972 z "},"õ":{"ha":801,"x_min":0,"x_max":0,"o":"m 399 -15 b 756 346 579 -15 756 99 b 410 694 756 551 617 694 b 46 335 190 694 46 554 b 397 -15 46 115 199 -15 z m 400 136 b 263 339 311 136 263 224 b 401 543 263 440 301 543 b 536 340 497 543 536 440 b 401 136 536 218 485 136 z m 303 772 b 336 835 306 814 318 835 b 390 814 353 835 365 828 b 488 782 419 797 447 782 b 596 951 558 782 599 832 l 504 951 b 467 890 500 904 490 890 b 407 917 449 890 429 903 b 315 946 381 931 354 946 b 208 772 246 946 206 882 z "},"š":{"ha":603,"x_min":0,"x_max":0,"o":"m 46 33 b 265 -15 97 6 176 -15 b 558 206 460 -15 558 78 b 375 414 557 304 504 371 b 265 493 292 443 265 460 b 346 547 265 526 294 547 b 493 510 403 547 463 525 l 529 654 b 339 694 488 675 418 694 b 63 471 171 694 63 599 b 257 268 61 392 115 314 b 356 189 335 242 356 225 b 265 133 356 154 329 133 b 83 183 203 133 122 160 z m 376 761 l 514 972 l 378 972 l 307 850 l 304 850 l 233 972 l 97 972 l 235 761 z "},"ú":{"ha":810,"x_min":0,"x_max":0,"o":"m 725 679 l 514 679 l 514 275 b 506 229 514 257 511 242 b 400 156 493 196 458 156 b 293 314 325 156 293 215 l 293 679 l 82 679 l 82 281 b 321 -15 82 71 182 -15 b 533 96 443 -15 507 54 l 538 96 l 547 0 l 731 0 b 725 218 728 57 725 129 z m 439 972 l 319 761 l 464 761 l 633 972 z "},"û":{"ha":810,"x_min":0,"x_max":0,"o":"m 725 679 l 514 679 l 514 275 b 506 229 514 257 511 242 b 400 156 493 196 458 156 b 293 314 325 156 293 215 l 293 679 l 82 679 l 82 281 b 321 -15 82 71 182 -15 b 533 96 443 -15 507 54 l 538 96 l 547 0 l 731 0 b 725 218 728 57 725 129 z m 339 972 l 201 761 l 335 761 l 404 881 l 407 881 l 476 761 l 610 761 l 472 972 z "},"ü":{"ha":810,"x_min":0,"x_max":0,"o":"m 725 679 l 514 679 l 514 275 b 506 229 514 257 511 242 b 400 156 493 196 458 156 b 293 314 325 156 293 215 l 293 679 l 82 679 l 82 281 b 321 -15 82 71 182 -15 b 533 96 443 -15 507 54 l 538 96 l 547 0 l 731 0 b 725 218 728 57 725 129 z m 269 760 b 361 854 322 760 361 803 b 269 949 361 908 322 949 b 174 854 215 949 174 908 b 268 760 174 803 215 760 z m 551 760 b 644 854 606 760 644 803 b 551 949 644 908 606 949 b 457 854 497 949 457 908 b 550 760 457 803 496 760 z "},"ù":{"ha":810,"x_min":0,"x_max":0,"o":"m 725 679 l 514 679 l 514 275 b 506 229 514 257 511 242 b 400 156 493 196 458 156 b 293 314 325 156 293 215 l 293 679 l 82 679 l 82 281 b 321 -15 82 71 182 -15 b 533 96 443 -15 507 54 l 538 96 l 547 0 l 731 0 b 725 218 728 57 725 129 z m 178 972 l 347 761 l 492 761 l 372 972 z "},"ý":{"ha":726,"x_min":0,"x_max":0,"o":"m 8 679 l 258 58 b 267 24 265 42 267 31 b 256 -7 267 14 263 4 b 168 -92 236 -40 200 -75 b 76 -128 136 -110 103 -122 l 121 -306 b 325 -212 175 -300 253 -276 b 564 232 401 -144 467 -37 l 722 679 l 496 679 l 413 346 b 382 219 403 307 392 256 l 378 219 b 344 346 369 256 356 306 l 243 679 z m 414 972 l 294 761 l 439 761 l 608 972 z "},"ÿ":{"ha":726,"x_min":0,"x_max":0,"o":"m 8 679 l 258 58 b 267 24 265 42 267 31 b 256 -7 267 14 263 4 b 168 -92 236 -40 200 -75 b 76 -128 136 -110 103 -122 l 121 -306 b 325 -212 175 -300 253 -276 b 564 232 401 -144 467 -37 l 722 679 l 496 679 l 413 346 b 382 219 403 307 392 256 l 378 219 b 344 346 369 256 356 306 l 243 679 z m 240 760 b 332 854 293 760 332 803 b 240 949 332 908 293 949 b 144 854 186 949 144 908 b 239 760 144 803 186 760 z m 522 760 b 615 854 576 760 615 803 b 522 949 615 908 576 949 b 428 854 468 949 428 908 b 521 760 428 803 467 760 z "},"ž":{"ha":651,"x_min":0,"x_max":0,"o":"m 31 0 l 621 0 l 621 168 l 294 168 l 294 171 b 406 294 333 208 368 251 l 610 551 l 610 679 l 54 679 l 54 511 l 353 511 l 353 508 b 244 389 314 468 283 433 l 31 122 z m 406 761 l 543 972 l 407 972 l 336 850 l 333 850 l 263 972 l 126 972 l 264 761 z "},"€":{"ha":771,"x_min":0,"x_max":0,"o":"m 710 726 l 701 851 b 475 918 668 885 610 918 b 115 547 240 918 143 782 l 51 547 l 25 486 l 111 486 b 110 449 110 475 110 458 b 111 406 110 438 110 418 l 51 406 l 25 344 l 119 344 b 475 -14 144 113 253 -14 b 701 54 603 -14 663 15 l 710 175 l 676 175 b 522 51 661 86 596 51 b 321 344 403 51 333 156 l 550 344 l 576 406 l 319 406 b 319 446 319 415 319 433 b 319 486 319 458 319 474 l 613 486 l 639 547 l 322 547 b 519 851 338 736 389 851 b 676 726 603 851 663 814 z "}}}
